<svg xmlns="http://www.w3.org/2000/svg" xmlns:xlink="http://www.w3.org/1999/xlink" width="500" zoomAndPan="magnify" viewBox="0 0 375 374.999991" height="500" preserveAspectRatio="xMidYMid meet" version="1.0"><defs><g/></defs><path fill="#7ed957" d="M 152.996094 160.96875 C 152.996094 160.96875 154.03125 145.15625 148.117188 132.449219 L 185.652344 132.5 C 189.460938 162.996094 176.28125 185.386719 150.484375 201.75 C 181.410156 188.207031 195.78125 163.777344 191.121094 126.835938 L 138.957031 126.835938 L 144.128906 135.847656 L 126.25 135.847656 C 126.25 135.847656 142.355469 150.921875 146.34375 159.789062 C 146.34375 159.789062 144.71875 149.148438 138.808594 142.5 L 147.378906 142.5 C 147.378906 142.496094 151.960938 152.542969 152.996094 160.96875 Z M 152.996094 160.96875 " fill-opacity="1" fill-rule="nonzero"/><path fill="#7ed957" d="M 168.238281 145.097656 L 167.722656 145.097656 C 167.367188 145.097656 167.078125 145.136719 166.847656 145.210938 C 166.621094 145.289062 166.449219 145.382812 166.335938 145.496094 C 166.195312 145.636719 166.105469 145.824219 166.0625 146.058594 C 166.015625 146.292969 165.992188 146.507812 165.992188 146.695312 C 165.992188 146.9375 166.027344 147.136719 166.097656 147.296875 C 166.167969 147.453125 166.253906 147.585938 166.355469 147.6875 C 166.457031 147.789062 166.566406 147.863281 166.679688 147.914062 C 166.792969 147.964844 166.894531 148.003906 166.984375 148.03125 L 168.238281 148.429688 Z M 168.238281 145.097656 " fill-opacity="1" fill-rule="nonzero"/><path fill="#7ed957" d="M 170.941406 154.355469 C 171.246094 154.3125 171.480469 154.222656 171.644531 154.082031 C 171.757812 153.980469 171.851562 153.839844 171.929688 153.652344 C 172.003906 153.46875 172.042969 153.242188 172.042969 152.976562 C 172.042969 152.609375 171.957031 152.261719 171.777344 151.941406 C 171.597656 151.617188 171.230469 151.367188 170.671875 151.191406 L 169.722656 150.882812 L 169.722656 154.421875 L 170.179688 154.421875 C 170.382812 154.421875 170.636719 154.402344 170.941406 154.355469 Z M 170.941406 154.355469 " fill-opacity="1" fill-rule="nonzero"/><path fill="#7ed957" d="M 180.035156 149.738281 C 180.035156 143.617188 175.074219 138.652344 168.953125 138.652344 C 162.832031 138.652344 157.871094 143.617188 157.871094 149.738281 C 157.871094 155.855469 162.832031 160.820312 168.953125 160.820312 C 175.074219 160.820312 180.035156 155.855469 180.035156 149.738281 Z M 163.898438 156.421875 L 163.898438 154.421875 L 168.238281 154.421875 L 168.238281 150.410156 L 165.6875 149.589844 C 165.332031 149.476562 165 149.339844 164.699219 149.179688 C 164.394531 149.023438 164.113281 148.734375 163.859375 148.316406 C 163.65625 147.972656 163.53125 147.621094 163.480469 147.257812 C 163.429688 146.898438 163.402344 146.5625 163.402344 146.257812 C 163.402344 145.867188 163.4375 145.46875 163.507812 145.070312 C 163.578125 144.667969 163.75 144.3125 164.03125 143.992188 C 164.210938 143.789062 164.410156 143.628906 164.628906 143.507812 C 164.851562 143.390625 165.082031 143.296875 165.316406 143.242188 C 165.550781 143.1875 165.785156 143.148438 166.019531 143.128906 C 166.253906 143.109375 166.480469 143.097656 166.695312 143.097656 L 168.234375 143.097656 L 168.234375 141.804688 L 169.71875 141.804688 L 169.71875 143.097656 L 173.792969 143.097656 L 173.792969 145.097656 L 169.71875 145.097656 L 169.71875 148.90625 L 171.964844 149.628906 C 172.308594 149.742188 172.660156 149.875 173.023438 150.027344 C 173.382812 150.179688 173.722656 150.464844 174.039062 150.882812 C 174.320312 151.253906 174.488281 151.617188 174.542969 151.980469 C 174.601562 152.339844 174.628906 152.738281 174.628906 153.167969 C 174.628906 153.410156 174.625 153.652344 174.609375 153.890625 C 174.597656 154.132812 174.558594 154.367188 174.496094 154.59375 C 174.433594 154.820312 174.339844 155.042969 174.222656 155.25 C 174.101562 155.460938 173.933594 155.648438 173.71875 155.8125 C 173.527344 155.964844 173.316406 156.082031 173.089844 156.164062 C 172.859375 156.246094 172.625 156.308594 172.386719 156.34375 C 172.144531 156.382812 171.902344 156.40625 171.664062 156.414062 C 171.421875 156.417969 171.195312 156.421875 170.976562 156.421875 L 169.722656 156.421875 L 169.722656 157.714844 L 168.238281 157.714844 L 168.238281 156.421875 Z M 163.898438 156.421875 " fill-opacity="1" fill-rule="nonzero"/><path fill="#7ed957" d="M 177.941406 93.0625 L 179.777344 108.324219 L 155.511719 98.003906 C 155.640625 98.300781 160.945312 110.328125 164.867188 122.722656 L 170.445312 122.722656 C 170.175781 119.910156 169.652344 117.035156 168.730469 114.308594 L 180.363281 119.257812 C 180.363281 119.257812 180.398438 120.570312 180.371094 122.722656 L 185.636719 122.722656 C 186.691406 117.425781 187.34375 111.707031 187.148438 105.996094 L 238.066406 127.730469 C 227.097656 166.488281 201.6875 188.871094 165.121094 198.609375 C 160.421875 199.863281 155.542969 200.910156 150.480469 201.746094 C 153.964844 201.707031 157.371094 201.546875 160.695312 201.261719 C 204.859375 197.519531 234.859375 172.46875 248.746094 123.175781 Z M 177.941406 93.0625 " fill-opacity="1" fill-rule="nonzero"/><path fill="#7ed957" d="M 206.484375 134.546875 C 206 134.339844 205.582031 134.226562 205.226562 134.195312 C 204.875 134.167969 204.589844 134.199219 204.367188 134.289062 C 204.09375 134.398438 203.863281 134.601562 203.671875 134.894531 C 203.472656 135.1875 203.324219 135.464844 203.210938 135.722656 C 203.074219 136.050781 203.007812 136.34375 203.007812 136.601562 C 203.011719 136.855469 203.054688 137.082031 203.132812 137.28125 C 203.210938 137.472656 203.316406 137.644531 203.441406 137.777344 C 203.566406 137.910156 203.683594 138.023438 203.789062 138.109375 L 205.265625 139.378906 L 207.183594 134.84375 Z M 206.484375 134.546875 " fill-opacity="1" fill-rule="nonzero"/><path fill="#7ed957" d="M 204.453125 148.667969 C 204.726562 148.78125 205.082031 148.898438 205.519531 149.015625 C 205.960938 149.128906 206.332031 149.140625 206.636719 149.042969 C 206.851562 148.972656 207.0625 148.832031 207.269531 148.625 C 207.480469 148.417969 207.660156 148.136719 207.8125 147.769531 C 208.027344 147.269531 208.105469 146.75 208.046875 146.203125 C 207.992188 145.664062 207.636719 145.105469 206.980469 144.542969 L 205.867188 143.578125 L 203.824219 148.398438 Z M 204.453125 148.667969 " fill-opacity="1" fill-rule="nonzero"/><path fill="#7ed957" d="M 195.71875 148.160156 C 195.53125 150.1875 195.273438 152.167969 194.941406 154.105469 C 196.164062 155.140625 197.554688 156.007812 199.105469 156.667969 C 207.414062 160.199219 217.003906 156.308594 220.527344 147.972656 C 224.042969 139.632812 220.167969 130.011719 211.859375 126.476562 C 206.214844 124.078125 199.980469 125.109375 195.460938 128.625 C 196.078125 134.367188 196.238281 139.84375 195.945312 145.050781 L 201.8125 147.542969 L 204.125 142.074219 L 201.132812 139.488281 C 200.714844 139.125 200.34375 138.75 200.023438 138.359375 C 199.703125 137.96875 199.488281 137.410156 199.386719 136.695312 C 199.308594 136.113281 199.335938 135.558594 199.480469 135.035156 C 199.617188 134.515625 199.773438 134.046875 199.949219 133.632812 C 200.175781 133.097656 200.449219 132.578125 200.773438 132.074219 C 201.101562 131.570312 201.542969 131.183594 202.105469 130.914062 C 202.460938 130.738281 202.824219 130.632812 203.199219 130.597656 C 203.570312 130.5625 203.933594 130.570312 204.28125 130.628906 C 204.632812 130.6875 204.972656 130.769531 205.300781 130.878906 C 205.636719 130.988281 205.945312 131.105469 206.238281 131.230469 L 208.328125 132.121094 L 209.074219 130.359375 L 211.089844 131.214844 L 210.34375 132.976562 L 215.871094 135.328125 L 214.722656 138.050781 L 209.195312 135.699219 L 207.007812 140.882812 L 209.636719 143.164062 C 210.035156 143.515625 210.4375 143.902344 210.84375 144.316406 C 211.246094 144.734375 211.539062 145.320312 211.730469 146.074219 C 211.898438 146.734375 211.914062 147.328125 211.789062 147.855469 C 211.65625 148.382812 211.464844 148.9375 211.214844 149.523438 C 211.078125 149.851562 210.933594 150.179688 210.773438 150.5 C 210.617188 150.820312 210.429688 151.117188 210.214844 151.390625 C 209.996094 151.664062 209.746094 151.910156 209.464844 152.128906 C 209.179688 152.339844 208.84375 152.5 208.453125 152.597656 C 208.105469 152.695312 207.757812 152.734375 207.398438 152.71875 C 207.042969 152.695312 206.691406 152.644531 206.34375 152.558594 C 205.992188 152.46875 205.652344 152.359375 205.324219 152.230469 C 204.988281 152.097656 204.679688 151.972656 204.386719 151.847656 L 202.679688 151.125 L 201.933594 152.886719 L 199.921875 152.027344 L 200.664062 150.265625 Z M 195.71875 148.160156 " fill-opacity="1" fill-rule="nonzero"/><g fill="#000000" fill-opacity="1"><g transform="translate(57.482949, 232.366391)"><g><path d="M 6.234375 0.078125 C 5.785156 0.0234375 4.914062 0 3.625 0 L 2.5 0 L 2.5 -18.8125 C 3.09375 -18.769531 3.75 -18.75 4.46875 -18.75 C 5.195312 -18.75 5.710938 -18.785156 6.015625 -18.859375 L 10.75 -10.8125 L 15.3125 -18.859375 C 15.613281 -18.785156 16.1875 -18.75 17.03125 -18.75 C 17.875 -18.75 18.597656 -18.769531 19.203125 -18.8125 L 19.203125 0 L 18.078125 0 C 16.785156 0 15.914062 0.0234375 15.46875 0.078125 L 15.46875 -12.546875 L 10.859375 -4.296875 L 6.234375 -11.890625 Z M 6.234375 0.078125 "/></g></g></g><g fill="#000000" fill-opacity="1"><g transform="translate(83.214323, 232.366391)"><g><path d="M 3.953125 -2.21875 C 3.097656 -3.039062 2.425781 -4.023438 1.9375 -5.171875 C 1.445312 -6.316406 1.203125 -7.570312 1.203125 -8.9375 C 1.203125 -10.3125 1.429688 -11.609375 1.890625 -12.828125 C 2.347656 -14.046875 3.003906 -15.117188 3.859375 -16.046875 C 4.710938 -16.984375 5.742188 -17.726562 6.953125 -18.28125 C 8.171875 -18.832031 9.535156 -19.109375 11.046875 -19.109375 C 13.640625 -19.109375 15.820312 -18.289062 17.59375 -16.65625 C 19.488281 -14.90625 20.4375 -12.546875 20.4375 -9.578125 C 20.4375 -6.703125 19.460938 -4.304688 17.515625 -2.390625 C 16.304688 -1.222656 14.867188 -0.414062 13.203125 0.03125 C 12.390625 0.25 11.4375 0.359375 10.34375 0.359375 C 9.25 0.359375 8.125 0.132812 6.96875 -0.3125 C 5.820312 -0.769531 4.816406 -1.40625 3.953125 -2.21875 Z M 5.125 -9.140625 C 5.125 -8.265625 5.265625 -7.457031 5.546875 -6.71875 C 5.835938 -5.988281 6.242188 -5.363281 6.765625 -4.84375 C 7.867188 -3.726562 9.285156 -3.171875 11.015625 -3.171875 C 12.660156 -3.171875 13.976562 -3.703125 14.96875 -4.765625 C 15.988281 -5.867188 16.5 -7.367188 16.5 -9.265625 C 16.5 -11.046875 16.015625 -12.535156 15.046875 -13.734375 C 14.003906 -15.015625 12.570312 -15.65625 10.75 -15.65625 C 9 -15.65625 7.601562 -15.003906 6.5625 -13.703125 C 5.601562 -12.492188 5.125 -10.972656 5.125 -9.140625 Z M 5.125 -9.140625 "/></g></g></g><g fill="#000000" fill-opacity="1"><g transform="translate(108.889324, 232.366391)"><g><path d="M 2.546875 0 C 2.609375 -0.320312 2.640625 -0.671875 2.640625 -1.046875 L 2.640625 -18.75 L 5.453125 -18.75 L 12.921875 -7 L 12.921875 -17.796875 C 12.921875 -18.304688 12.875 -18.625 12.78125 -18.75 L 16.59375 -18.75 C 16.550781 -18.375 16.53125 -17.960938 16.53125 -17.515625 L 16.53125 0 L 13.59375 0 L 6.234375 -11.296875 L 6.234375 0 Z M 2.546875 0 "/></g></g></g><g fill="#000000" fill-opacity="1"><g transform="translate(132.083887, 232.366391)"><g><path d="M 11.859375 -3.390625 C 12.441406 -3.390625 12.84375 -3.441406 13.0625 -3.546875 L 13.125 -3.53125 L 12.984375 0 L 2.421875 0 L 2.421875 -18.84375 C 2.679688 -18.832031 2.960938 -18.820312 3.265625 -18.8125 L 4.265625 -18.78125 C 4.921875 -18.757812 5.632812 -18.75 6.40625 -18.75 C 8.550781 -18.75 10.675781 -18.785156 12.78125 -18.859375 C 12.6875 -18.035156 12.640625 -16.929688 12.640625 -15.546875 C 12.640625 -15.398438 12.644531 -15.289062 12.65625 -15.21875 L 12.640625 -15.171875 C 12.148438 -15.304688 11.453125 -15.375 10.546875 -15.375 L 6.109375 -15.375 L 6.109375 -11.78125 L 9.453125 -11.78125 C 10.484375 -11.78125 11.101562 -11.8125 11.3125 -11.875 L 11.34375 -8.390625 C 10.894531 -8.429688 10.3125 -8.453125 9.59375 -8.453125 L 6.109375 -8.453125 L 6.109375 -3.390625 Z M 11.859375 -3.390625 "/></g></g></g><g fill="#000000" fill-opacity="1"><g transform="translate(150.585344, 232.366391)"><g><path d="M 6.359375 0 C 6.484375 -0.363281 6.546875 -1.21875 6.546875 -2.5625 L 6.546875 -6.484375 C 4.921875 -10.066406 3.878906 -12.300781 3.421875 -13.1875 C 2.972656 -14.070312 2.59375 -14.773438 2.28125 -15.296875 C 1.300781 -16.953125 0.710938 -17.898438 0.515625 -18.140625 C 0.316406 -18.390625 0.113281 -18.59375 -0.09375 -18.75 L 4.765625 -18.75 C 4.867188 -18.5625 5.007812 -18.285156 5.1875 -17.921875 L 8.59375 -10.71875 C 8.757812 -11.113281 8.953125 -11.554688 9.171875 -12.046875 C 11.210938 -16.453125 12.25 -18.6875 12.28125 -18.75 L 16.9375 -18.75 C 16.457031 -18.363281 15.867188 -17.554688 15.171875 -16.328125 C 14.953125 -15.960938 14.734375 -15.546875 14.515625 -15.078125 L 11.328125 -8.4375 C 10.972656 -7.632812 10.671875 -6.914062 10.421875 -6.28125 L 10.421875 -2.234375 C 10.421875 -1.285156 10.476562 -0.539062 10.59375 0 Z M 6.359375 0 "/></g></g></g><g fill="#000000" fill-opacity="1"><g transform="translate(171.440403, 232.366391)"><g/></g></g><g fill="#000000" fill-opacity="1"><g transform="translate(185.051455, 232.366391)"><g><path d="M 6.234375 0.078125 C 5.785156 0.0234375 4.914062 0 3.625 0 L 2.5 0 L 2.5 -18.8125 C 3.09375 -18.769531 3.75 -18.75 4.46875 -18.75 C 5.195312 -18.75 5.710938 -18.785156 6.015625 -18.859375 L 10.75 -10.8125 L 15.3125 -18.859375 C 15.613281 -18.785156 16.1875 -18.75 17.03125 -18.75 C 17.875 -18.75 18.597656 -18.769531 19.203125 -18.8125 L 19.203125 0 L 18.078125 0 C 16.785156 0 15.914062 0.0234375 15.46875 0.078125 L 15.46875 -12.546875 L 10.859375 -4.296875 L 6.234375 -11.890625 Z M 6.234375 0.078125 "/></g></g></g><g fill="#000000" fill-opacity="1"><g transform="translate(210.78283, 232.366391)"><g><path d="M 3.953125 -2.21875 C 3.097656 -3.039062 2.425781 -4.023438 1.9375 -5.171875 C 1.445312 -6.316406 1.203125 -7.570312 1.203125 -8.9375 C 1.203125 -10.3125 1.429688 -11.609375 1.890625 -12.828125 C 2.347656 -14.046875 3.003906 -15.117188 3.859375 -16.046875 C 4.710938 -16.984375 5.742188 -17.726562 6.953125 -18.28125 C 8.171875 -18.832031 9.535156 -19.109375 11.046875 -19.109375 C 13.640625 -19.109375 15.820312 -18.289062 17.59375 -16.65625 C 19.488281 -14.90625 20.4375 -12.546875 20.4375 -9.578125 C 20.4375 -6.703125 19.460938 -4.304688 17.515625 -2.390625 C 16.304688 -1.222656 14.867188 -0.414062 13.203125 0.03125 C 12.390625 0.25 11.4375 0.359375 10.34375 0.359375 C 9.25 0.359375 8.125 0.132812 6.96875 -0.3125 C 5.820312 -0.769531 4.816406 -1.40625 3.953125 -2.21875 Z M 5.125 -9.140625 C 5.125 -8.265625 5.265625 -7.457031 5.546875 -6.71875 C 5.835938 -5.988281 6.242188 -5.363281 6.765625 -4.84375 C 7.867188 -3.726562 9.285156 -3.171875 11.015625 -3.171875 C 12.660156 -3.171875 13.976562 -3.703125 14.96875 -4.765625 C 15.988281 -5.867188 16.5 -7.367188 16.5 -9.265625 C 16.5 -11.046875 16.015625 -12.535156 15.046875 -13.734375 C 14.003906 -15.015625 12.570312 -15.65625 10.75 -15.65625 C 9 -15.65625 7.601562 -15.003906 6.5625 -13.703125 C 5.601562 -12.492188 5.125 -10.972656 5.125 -9.140625 Z M 5.125 -9.140625 "/></g></g></g><g fill="#000000" fill-opacity="1"><g transform="translate(236.457831, 232.366391)"><g><path d="M 2.546875 0 C 2.609375 -0.320312 2.640625 -0.671875 2.640625 -1.046875 L 2.640625 -18.75 L 5.453125 -18.75 L 12.921875 -7 L 12.921875 -17.796875 C 12.921875 -18.304688 12.875 -18.625 12.78125 -18.75 L 16.59375 -18.75 C 16.550781 -18.375 16.53125 -17.960938 16.53125 -17.515625 L 16.53125 0 L 13.59375 0 L 6.234375 -11.296875 L 6.234375 0 Z M 2.546875 0 "/></g></g></g><g fill="#000000" fill-opacity="1"><g transform="translate(259.652382, 232.366391)"><g><path d="M 17.875 -11.3125 C 17.695312 -10.988281 17.609375 -10.222656 17.609375 -9.015625 L 17.609375 -4.640625 C 17.609375 -3.316406 16.921875 -2.164062 15.546875 -1.1875 C 14.128906 -0.15625 12.390625 0.359375 10.328125 0.359375 C 7.472656 0.359375 5.195312 -0.539062 3.5 -2.34375 C 1.851562 -4.050781 1.03125 -6.226562 1.03125 -8.875 C 1.03125 -11.695312 1.863281 -14.050781 3.53125 -15.9375 C 5.40625 -18.050781 7.984375 -19.109375 11.265625 -19.109375 C 13.453125 -19.109375 15.1875 -18.679688 16.46875 -17.828125 L 16.25 -13.671875 L 16.125 -13.640625 C 15.800781 -14.222656 15.15625 -14.695312 14.1875 -15.0625 C 13.257812 -15.40625 12.289062 -15.578125 11.28125 -15.578125 C 10.269531 -15.578125 9.382812 -15.414062 8.625 -15.09375 C 7.875 -14.78125 7.238281 -14.328125 6.71875 -13.734375 C 5.601562 -12.515625 5.046875 -10.910156 5.046875 -8.921875 C 5.046875 -7.179688 5.535156 -5.785156 6.515625 -4.734375 C 7.492188 -3.691406 8.753906 -3.171875 10.296875 -3.171875 C 11.992188 -3.171875 13.140625 -3.613281 13.734375 -4.5 C 13.921875 -4.78125 14.015625 -5.097656 14.015625 -5.453125 L 14.015625 -7.796875 L 12.203125 -7.796875 C 11.222656 -7.796875 10.691406 -7.710938 10.609375 -7.546875 L 10.5625 -7.5625 L 10.4375 -11.234375 C 10.695312 -11.160156 11.765625 -11.125 13.640625 -11.125 L 15.296875 -11.125 C 16.328125 -11.125 17.171875 -11.191406 17.828125 -11.328125 Z M 17.875 -11.3125 "/></g></g></g><g fill="#000000" fill-opacity="1"><g transform="translate(282.917396, 232.366391)"><g><path d="M 11.859375 -3.390625 C 12.441406 -3.390625 12.84375 -3.441406 13.0625 -3.546875 L 13.125 -3.53125 L 12.984375 0 L 2.421875 0 L 2.421875 -18.84375 C 2.679688 -18.832031 2.960938 -18.820312 3.265625 -18.8125 L 4.265625 -18.78125 C 4.921875 -18.757812 5.632812 -18.75 6.40625 -18.75 C 8.550781 -18.75 10.675781 -18.785156 12.78125 -18.859375 C 12.6875 -18.035156 12.640625 -16.929688 12.640625 -15.546875 C 12.640625 -15.398438 12.644531 -15.289062 12.65625 -15.21875 L 12.640625 -15.171875 C 12.148438 -15.304688 11.453125 -15.375 10.546875 -15.375 L 6.109375 -15.375 L 6.109375 -11.78125 L 9.453125 -11.78125 C 10.484375 -11.78125 11.101562 -11.8125 11.3125 -11.875 L 11.34375 -8.390625 C 10.894531 -8.429688 10.3125 -8.453125 9.59375 -8.453125 L 6.109375 -8.453125 L 6.109375 -3.390625 Z M 11.859375 -3.390625 "/></g></g></g><g fill="#000000" fill-opacity="1"><g transform="translate(301.418852, 232.366391)"><g><path d="M 8.484375 -7.296875 C 8.203125 -7.273438 7.898438 -7.265625 7.578125 -7.265625 C 7.265625 -7.265625 6.789062 -7.285156 6.15625 -7.328125 L 6.15625 0 L 2.421875 0 L 2.421875 -18.84375 C 3.742188 -19.019531 5.363281 -19.109375 7.28125 -19.109375 C 9.882812 -19.109375 11.828125 -18.625 13.109375 -17.65625 C 14.398438 -16.695312 15.046875 -15.210938 15.046875 -13.203125 C 15.046875 -11.640625 14.457031 -10.300781 13.28125 -9.1875 C 12.894531 -8.832031 12.453125 -8.523438 11.953125 -8.265625 L 14.828125 -2.203125 C 15.390625 -0.953125 15.820312 -0.207031 16.125 0.03125 L 16.0625 0.09375 C 15.144531 -0.0507812 13.710938 -0.046875 11.765625 0.109375 Z M 7.546875 -15.78125 C 7.066406 -15.78125 6.601562 -15.753906 6.15625 -15.703125 L 6.15625 -10.328125 C 6.625 -10.253906 7.164062 -10.21875 7.78125 -10.21875 C 8.40625 -10.21875 8.925781 -10.269531 9.34375 -10.375 C 9.769531 -10.488281 10.140625 -10.660156 10.453125 -10.890625 C 11.117188 -11.378906 11.453125 -12.125 11.453125 -13.125 C 11.453125 -14.125 11.101562 -14.828125 10.40625 -15.234375 C 9.757812 -15.597656 8.804688 -15.78125 7.546875 -15.78125 Z M 7.546875 -15.78125 "/></g></g></g><g fill="#000000" fill-opacity="1"><g transform="translate(128.842833, 256.525135)"><g><path d="M 8.171875 -3.0625 C 8.078125 -2.789062 7.960938 -2.390625 7.828125 -1.859375 C 7.671875 -1.316406 7.539062 -0.695312 7.4375 0 C 6.769531 -0.03125 5.664062 -0.046875 4.125 -0.046875 C 2.007812 -0.046875 0.425781 -0.03125 -0.625 0 L -0.546875 -0.296875 C -0.203125 -0.304688 0.0507812 -0.34375 0.21875 -0.40625 C 0.394531 -0.46875 0.535156 -0.578125 0.640625 -0.734375 C 0.742188 -0.898438 0.847656 -1.171875 0.953125 -1.546875 L 2.859375 -8.75 C 2.941406 -9.082031 2.984375 -9.316406 2.984375 -9.453125 C 2.984375 -9.671875 2.910156 -9.8125 2.765625 -9.875 C 2.628906 -9.945312 2.375 -9.992188 2 -10.015625 L 2.078125 -10.296875 C 2.585938 -10.265625 3.390625 -10.25 4.484375 -10.25 C 5.390625 -10.25 6.144531 -10.265625 6.75 -10.296875 L 6.671875 -10.015625 C 6.316406 -9.992188 6.050781 -9.953125 5.875 -9.890625 C 5.707031 -9.828125 5.570312 -9.710938 5.46875 -9.546875 C 5.363281 -9.390625 5.265625 -9.125 5.171875 -8.75 L 3.25 -1.546875 C 3.15625 -1.171875 3.109375 -0.929688 3.109375 -0.828125 C 3.109375 -0.628906 3.175781 -0.492188 3.3125 -0.421875 C 3.457031 -0.359375 3.71875 -0.328125 4.09375 -0.328125 L 4.671875 -0.328125 C 5.359375 -0.328125 5.960938 -0.535156 6.484375 -0.953125 C 7.003906 -1.378906 7.460938 -2.082031 7.859375 -3.0625 Z M 8.171875 -3.0625 "/></g></g></g><g fill="#000000" fill-opacity="1"><g transform="translate(138.361464, 256.525135)"><g><path d="M 0.171875 -2.203125 C 0.171875 -2.992188 0.351562 -3.820312 0.71875 -4.6875 C 1.082031 -5.550781 1.617188 -6.269531 2.328125 -6.84375 C 3.046875 -7.425781 3.898438 -7.71875 4.890625 -7.71875 C 5.640625 -7.71875 6.21875 -7.507812 6.625 -7.09375 C 7.039062 -6.6875 7.25 -6.097656 7.25 -5.328125 C 7.25 -4.523438 7.066406 -3.691406 6.703125 -2.828125 C 6.335938 -1.972656 5.796875 -1.253906 5.078125 -0.671875 C 4.367188 -0.0859375 3.519531 0.203125 2.53125 0.203125 C 1.769531 0.203125 1.1875 0 0.78125 -0.40625 C 0.375 -0.820312 0.171875 -1.421875 0.171875 -2.203125 Z M 4.8125 -7.4375 C 4.457031 -7.4375 4.066406 -7.09375 3.640625 -6.40625 C 3.210938 -5.71875 2.851562 -4.875 2.5625 -3.875 C 2.269531 -2.875 2.125 -1.941406 2.125 -1.078125 C 2.125 -0.722656 2.160156 -0.46875 2.234375 -0.3125 C 2.316406 -0.164062 2.445312 -0.09375 2.625 -0.09375 C 2.976562 -0.09375 3.363281 -0.425781 3.78125 -1.09375 C 4.207031 -1.757812 4.566406 -2.585938 4.859375 -3.578125 C 5.148438 -4.578125 5.296875 -5.523438 5.296875 -6.421875 C 5.296875 -6.796875 5.253906 -7.054688 5.171875 -7.203125 C 5.097656 -7.359375 4.976562 -7.4375 4.8125 -7.4375 Z M 4.8125 -7.4375 "/></g></g></g><g fill="#000000" fill-opacity="1"><g transform="translate(146.775718, 256.525135)"><g><path d="M 7.203125 -2.359375 L 7.484375 -2.359375 L 7.109375 -1.296875 C 6.921875 -0.753906 6.65625 -0.367188 6.3125 -0.140625 C 5.96875 0.0859375 5.59375 0.203125 5.1875 0.203125 C 4.6875 0.203125 4.328125 0.0507812 4.109375 -0.25 C 3.972656 -0.425781 3.90625 -0.664062 3.90625 -0.96875 C 3.90625 -1.226562 3.953125 -1.515625 4.046875 -1.828125 C 3.710938 -1.109375 3.34375 -0.585938 2.9375 -0.265625 C 2.539062 0.046875 2.097656 0.203125 1.609375 0.203125 C 1.078125 0.203125 0.671875 0.046875 0.390625 -0.265625 C 0.117188 -0.578125 -0.015625 -1.015625 -0.015625 -1.578125 C -0.015625 -2.441406 0.210938 -3.359375 0.671875 -4.328125 C 1.140625 -5.296875 1.722656 -6.101562 2.421875 -6.75 C 3.128906 -7.394531 3.828125 -7.71875 4.515625 -7.71875 C 4.773438 -7.71875 4.984375 -7.640625 5.140625 -7.484375 C 5.296875 -7.335938 5.390625 -7.109375 5.421875 -6.796875 L 5.625 -7.5 C 6.40625 -7.507812 7.109375 -7.582031 7.734375 -7.71875 L 5.828125 -1.234375 C 5.785156 -1.066406 5.765625 -0.929688 5.765625 -0.828125 C 5.765625 -0.617188 5.851562 -0.515625 6.03125 -0.515625 C 6.375 -0.515625 6.675781 -0.894531 6.9375 -1.65625 Z M 5.265625 -6.21875 C 5.273438 -6.269531 5.28125 -6.34375 5.28125 -6.4375 C 5.28125 -6.6875 5.238281 -6.875 5.15625 -7 C 5.070312 -7.125 4.945312 -7.1875 4.78125 -7.1875 C 4.457031 -7.1875 4.082031 -6.890625 3.65625 -6.296875 C 3.238281 -5.703125 2.878906 -4.957031 2.578125 -4.0625 C 2.285156 -3.175781 2.140625 -2.316406 2.140625 -1.484375 C 2.140625 -1.160156 2.171875 -0.925781 2.234375 -0.78125 C 2.296875 -0.644531 2.398438 -0.578125 2.546875 -0.578125 C 2.753906 -0.578125 2.988281 -0.722656 3.25 -1.015625 C 3.507812 -1.316406 3.765625 -1.742188 4.015625 -2.296875 C 4.273438 -2.859375 4.503906 -3.523438 4.703125 -4.296875 L 4.625 -3.9375 Z M 5.265625 -6.21875 "/></g></g></g><g fill="#000000" fill-opacity="1"><g transform="translate(155.611377, 256.525135)"><g><path d="M 8.125 -2.359375 L 7.765625 -1.296875 C 7.421875 -0.296875 6.769531 0.203125 5.8125 0.203125 C 5.269531 0.203125 4.882812 0.0390625 4.65625 -0.28125 C 4.53125 -0.457031 4.46875 -0.679688 4.46875 -0.953125 C 4.46875 -1.265625 4.546875 -1.648438 4.703125 -2.109375 L 6.015625 -6.03125 C 6.097656 -6.300781 6.140625 -6.507812 6.140625 -6.65625 C 6.140625 -6.882812 6.046875 -7 5.859375 -7 C 5.566406 -7 5.210938 -6.703125 4.796875 -6.109375 C 4.390625 -5.515625 3.976562 -4.734375 3.5625 -3.765625 C 3.144531 -2.804688 2.78125 -1.796875 2.46875 -0.734375 L 2.28125 0 L 0.234375 0 L 2 -6.28125 C 2.050781 -6.457031 2.078125 -6.613281 2.078125 -6.75 C 2.078125 -6.925781 1.992188 -7.015625 1.828125 -7.015625 C 1.648438 -7.015625 1.488281 -6.925781 1.34375 -6.75 C 1.207031 -6.582031 1.0625 -6.285156 0.90625 -5.859375 L 0.625 -5.125 L 0.34375 -5.125 L 0.734375 -6.21875 C 0.921875 -6.757812 1.171875 -7.144531 1.484375 -7.375 C 1.796875 -7.601562 2.175781 -7.71875 2.625 -7.71875 C 3.457031 -7.71875 3.875 -7.320312 3.875 -6.53125 C 3.875 -6.257812 3.832031 -5.976562 3.75 -5.6875 L 3.296875 -3.921875 C 3.703125 -4.910156 4.082031 -5.679688 4.4375 -6.234375 C 4.800781 -6.785156 5.171875 -7.171875 5.546875 -7.390625 C 5.921875 -7.609375 6.335938 -7.71875 6.796875 -7.71875 C 7.671875 -7.71875 8.109375 -7.332031 8.109375 -6.5625 C 8.109375 -6.269531 8.039062 -5.925781 7.90625 -5.53125 L 6.484375 -1.234375 C 6.429688 -1.054688 6.40625 -0.914062 6.40625 -0.8125 C 6.40625 -0.613281 6.492188 -0.515625 6.671875 -0.515625 C 6.828125 -0.515625 6.976562 -0.59375 7.125 -0.75 C 7.28125 -0.914062 7.4375 -1.21875 7.59375 -1.65625 L 7.859375 -2.359375 Z M 8.125 -2.359375 "/></g></g></g><g fill="#000000" fill-opacity="1"><g transform="translate(165.100952, 256.525135)"><g/></g></g><g fill="#000000" fill-opacity="1"><g transform="translate(169.533623, 256.525135)"><g><path d="M 10.859375 -10.296875 C 10.535156 -9.460938 10.222656 -8.347656 9.921875 -6.953125 L 9.59375 -6.953125 C 9.675781 -7.398438 9.71875 -7.785156 9.71875 -8.109375 C 9.71875 -8.546875 9.632812 -8.910156 9.46875 -9.203125 C 9.125 -9.835938 8.550781 -10.15625 7.75 -10.15625 C 6.976562 -10.15625 6.238281 -9.8125 5.53125 -9.125 C 4.832031 -8.445312 4.269531 -7.5625 3.84375 -6.46875 C 3.425781 -5.375 3.21875 -4.253906 3.21875 -3.109375 C 3.21875 -2.148438 3.390625 -1.429688 3.734375 -0.953125 C 4.078125 -0.472656 4.554688 -0.234375 5.171875 -0.234375 C 5.546875 -0.234375 5.929688 -0.316406 6.328125 -0.484375 C 6.722656 -0.648438 7.066406 -0.882812 7.359375 -1.1875 C 7.609375 -1.457031 7.828125 -1.757812 8.015625 -2.09375 C 8.210938 -2.4375 8.429688 -2.898438 8.671875 -3.484375 L 8.984375 -3.484375 C 8.535156 -1.804688 8.25 -0.644531 8.125 0 L 7.8125 0 C 7.84375 -0.207031 7.859375 -0.375 7.859375 -0.5 C 7.859375 -0.75 7.796875 -0.875 7.671875 -0.875 C 7.585938 -0.875 7.488281 -0.828125 7.375 -0.734375 C 6.925781 -0.441406 6.476562 -0.210938 6.03125 -0.046875 C 5.59375 0.117188 5.09375 0.203125 4.53125 0.203125 C 3.226562 0.203125 2.25 -0.101562 1.59375 -0.71875 C 0.945312 -1.34375 0.625 -2.238281 0.625 -3.40625 C 0.625 -4.550781 0.925781 -5.671875 1.53125 -6.765625 C 2.132812 -7.867188 2.96875 -8.765625 4.03125 -9.453125 C 5.101562 -10.148438 6.285156 -10.5 7.578125 -10.5 C 8.117188 -10.5 8.546875 -10.414062 8.859375 -10.25 C 9.179688 -10.09375 9.476562 -9.863281 9.75 -9.5625 C 9.820312 -9.46875 9.894531 -9.421875 9.96875 -9.421875 C 10.132812 -9.421875 10.328125 -9.710938 10.546875 -10.296875 Z M 10.859375 -10.296875 "/></g></g></g><g fill="#000000" fill-opacity="1"><g transform="translate(180.331017, 256.525135)"><g><path d="M 7.203125 -2.359375 L 7.484375 -2.359375 L 7.109375 -1.296875 C 6.921875 -0.753906 6.65625 -0.367188 6.3125 -0.140625 C 5.96875 0.0859375 5.59375 0.203125 5.1875 0.203125 C 4.6875 0.203125 4.328125 0.0507812 4.109375 -0.25 C 3.972656 -0.425781 3.90625 -0.664062 3.90625 -0.96875 C 3.90625 -1.226562 3.953125 -1.515625 4.046875 -1.828125 C 3.710938 -1.109375 3.34375 -0.585938 2.9375 -0.265625 C 2.539062 0.046875 2.097656 0.203125 1.609375 0.203125 C 1.078125 0.203125 0.671875 0.046875 0.390625 -0.265625 C 0.117188 -0.578125 -0.015625 -1.015625 -0.015625 -1.578125 C -0.015625 -2.441406 0.210938 -3.359375 0.671875 -4.328125 C 1.140625 -5.296875 1.722656 -6.101562 2.421875 -6.75 C 3.128906 -7.394531 3.828125 -7.71875 4.515625 -7.71875 C 4.773438 -7.71875 4.984375 -7.640625 5.140625 -7.484375 C 5.296875 -7.335938 5.390625 -7.109375 5.421875 -6.796875 L 5.625 -7.5 C 6.40625 -7.507812 7.109375 -7.582031 7.734375 -7.71875 L 5.828125 -1.234375 C 5.785156 -1.066406 5.765625 -0.929688 5.765625 -0.828125 C 5.765625 -0.617188 5.851562 -0.515625 6.03125 -0.515625 C 6.375 -0.515625 6.675781 -0.894531 6.9375 -1.65625 Z M 5.265625 -6.21875 C 5.273438 -6.269531 5.28125 -6.34375 5.28125 -6.4375 C 5.28125 -6.6875 5.238281 -6.875 5.15625 -7 C 5.070312 -7.125 4.945312 -7.1875 4.78125 -7.1875 C 4.457031 -7.1875 4.082031 -6.890625 3.65625 -6.296875 C 3.238281 -5.703125 2.878906 -4.957031 2.578125 -4.0625 C 2.285156 -3.175781 2.140625 -2.316406 2.140625 -1.484375 C 2.140625 -1.160156 2.171875 -0.925781 2.234375 -0.78125 C 2.296875 -0.644531 2.398438 -0.578125 2.546875 -0.578125 C 2.753906 -0.578125 2.988281 -0.722656 3.25 -1.015625 C 3.507812 -1.316406 3.765625 -1.742188 4.015625 -2.296875 C 4.273438 -2.859375 4.503906 -3.523438 4.703125 -4.296875 L 4.625 -3.9375 Z M 5.265625 -6.21875 "/></g></g></g><g fill="#000000" fill-opacity="1"><g transform="translate(189.166674, 256.525135)"><g><path d="M 2.0625 -1.234375 C 2.019531 -1.109375 2 -0.988281 2 -0.875 C 2 -0.632812 2.101562 -0.515625 2.3125 -0.515625 C 2.613281 -0.515625 2.90625 -0.894531 3.1875 -1.65625 L 3.453125 -2.359375 L 3.71875 -2.359375 L 3.359375 -1.296875 C 3.171875 -0.753906 2.898438 -0.367188 2.546875 -0.140625 C 2.203125 0.0859375 1.828125 0.203125 1.421875 0.203125 C 0.984375 0.203125 0.65625 0.0859375 0.4375 -0.140625 C 0.21875 -0.367188 0.109375 -0.6875 0.109375 -1.09375 C 0.109375 -1.394531 0.164062 -1.734375 0.28125 -2.109375 L 2.5625 -9.703125 C 2.613281 -9.878906 2.640625 -10.015625 2.640625 -10.109375 C 2.640625 -10.304688 2.5625 -10.445312 2.40625 -10.53125 C 2.257812 -10.613281 2.003906 -10.65625 1.640625 -10.65625 L 1.75 -10.96875 C 2.414062 -10.976562 3.015625 -11.03125 3.546875 -11.125 C 4.078125 -11.226562 4.601562 -11.375 5.125 -11.5625 Z M 2.0625 -1.234375 "/></g></g></g><g fill="#000000" fill-opacity="1"><g transform="translate(194.253257, 256.525135)"><g><path d="M 5.203125 -7.4375 C 4.734375 -7.4375 4.269531 -7.175781 3.8125 -6.65625 C 3.363281 -6.132812 3 -5.453125 2.71875 -4.609375 C 2.4375 -3.773438 2.296875 -2.914062 2.296875 -2.03125 C 2.296875 -1.0625 2.664062 -0.578125 3.40625 -0.578125 C 4.101562 -0.578125 4.742188 -1.003906 5.328125 -1.859375 L 5.609375 -1.75 C 5.265625 -1.1875 4.820312 -0.71875 4.28125 -0.34375 C 3.75 0.0195312 3.132812 0.203125 2.4375 0.203125 C 1.726562 0.203125 1.160156 0.015625 0.734375 -0.359375 C 0.316406 -0.742188 0.109375 -1.300781 0.109375 -2.03125 C 0.109375 -2.863281 0.316406 -3.722656 0.734375 -4.609375 C 1.160156 -5.503906 1.75 -6.242188 2.5 -6.828125 C 3.257812 -7.421875 4.117188 -7.71875 5.078125 -7.71875 C 5.609375 -7.71875 6.035156 -7.582031 6.359375 -7.3125 C 6.691406 -7.050781 6.859375 -6.722656 6.859375 -6.328125 C 6.859375 -6.066406 6.789062 -5.804688 6.65625 -5.546875 C 6.53125 -5.296875 6.351562 -5.09375 6.125 -4.9375 C 5.90625 -4.789062 5.664062 -4.71875 5.40625 -4.71875 C 5.164062 -4.71875 4.96875 -4.789062 4.8125 -4.9375 C 4.65625 -5.09375 4.578125 -5.300781 4.578125 -5.5625 C 4.578125 -5.9375 4.707031 -6.269531 4.96875 -6.5625 C 5.238281 -6.863281 5.550781 -7.054688 5.90625 -7.140625 C 5.738281 -7.335938 5.503906 -7.4375 5.203125 -7.4375 Z M 5.203125 -7.4375 "/></g></g></g><g fill="#000000" fill-opacity="1"><g transform="translate(201.708436, 256.525135)"><g><path d="M 7.796875 -2.40625 L 8.078125 -2.40625 L 7.6875 -1.296875 C 7.5 -0.765625 7.234375 -0.378906 6.890625 -0.140625 C 6.546875 0.0859375 6.160156 0.203125 5.734375 0.203125 C 5.472656 0.203125 5.25 0.15625 5.0625 0.0625 C 4.875 -0.0195312 4.738281 -0.140625 4.65625 -0.296875 C 4.570312 -0.460938 4.53125 -0.660156 4.53125 -0.890625 C 4.53125 -1.109375 4.578125 -1.421875 4.671875 -1.828125 L 5.0625 -3.328125 C 4.6875 -2.421875 4.320312 -1.707031 3.96875 -1.1875 C 3.625 -0.675781 3.269531 -0.316406 2.90625 -0.109375 C 2.550781 0.0976562 2.148438 0.203125 1.703125 0.203125 C 1.265625 0.203125 0.9375 0.101562 0.71875 -0.09375 C 0.5 -0.300781 0.390625 -0.597656 0.390625 -0.984375 C 0.390625 -1.285156 0.453125 -1.625 0.578125 -2 L 2 -6.28125 C 2.050781 -6.457031 2.078125 -6.597656 2.078125 -6.703125 C 2.078125 -6.910156 1.984375 -7.015625 1.796875 -7.015625 C 1.648438 -7.015625 1.5 -6.929688 1.34375 -6.765625 C 1.195312 -6.597656 1.046875 -6.296875 0.890625 -5.859375 L 0.625 -5.171875 L 0.34375 -5.171875 L 0.71875 -6.21875 C 1.0625 -7.21875 1.707031 -7.71875 2.65625 -7.71875 C 3.539062 -7.71875 3.984375 -7.316406 3.984375 -6.515625 C 3.984375 -6.210938 3.914062 -5.84375 3.78125 -5.40625 L 2.46875 -1.484375 C 2.382812 -1.222656 2.34375 -1.015625 2.34375 -0.859375 C 2.34375 -0.640625 2.4375 -0.53125 2.625 -0.53125 C 2.914062 -0.53125 3.257812 -0.8125 3.65625 -1.375 C 4.050781 -1.945312 4.445312 -2.707031 4.84375 -3.65625 C 5.25 -4.601562 5.609375 -5.617188 5.921875 -6.703125 L 6.140625 -7.515625 C 7.003906 -7.535156 7.707031 -7.601562 8.25 -7.71875 L 6.4375 -1.234375 C 6.375 -1.035156 6.34375 -0.875 6.34375 -0.75 C 6.34375 -0.59375 6.425781 -0.515625 6.59375 -0.515625 C 6.769531 -0.515625 6.929688 -0.597656 7.078125 -0.765625 C 7.222656 -0.941406 7.367188 -1.238281 7.515625 -1.65625 Z M 7.796875 -2.40625 "/></g></g></g><g fill="#000000" fill-opacity="1"><g transform="translate(211.110821, 256.525135)"><g><path d="M 2.0625 -1.234375 C 2.019531 -1.109375 2 -0.988281 2 -0.875 C 2 -0.632812 2.101562 -0.515625 2.3125 -0.515625 C 2.613281 -0.515625 2.90625 -0.894531 3.1875 -1.65625 L 3.453125 -2.359375 L 3.71875 -2.359375 L 3.359375 -1.296875 C 3.171875 -0.753906 2.898438 -0.367188 2.546875 -0.140625 C 2.203125 0.0859375 1.828125 0.203125 1.421875 0.203125 C 0.984375 0.203125 0.65625 0.0859375 0.4375 -0.140625 C 0.21875 -0.367188 0.109375 -0.6875 0.109375 -1.09375 C 0.109375 -1.394531 0.164062 -1.734375 0.28125 -2.109375 L 2.5625 -9.703125 C 2.613281 -9.878906 2.640625 -10.015625 2.640625 -10.109375 C 2.640625 -10.304688 2.5625 -10.445312 2.40625 -10.53125 C 2.257812 -10.613281 2.003906 -10.65625 1.640625 -10.65625 L 1.75 -10.96875 C 2.414062 -10.976562 3.015625 -11.03125 3.546875 -11.125 C 4.078125 -11.226562 4.601562 -11.375 5.125 -11.5625 Z M 2.0625 -1.234375 "/></g></g></g><g fill="#000000" fill-opacity="1"><g transform="translate(216.197405, 256.525135)"><g><path d="M 7.203125 -2.359375 L 7.484375 -2.359375 L 7.109375 -1.296875 C 6.921875 -0.753906 6.65625 -0.367188 6.3125 -0.140625 C 5.96875 0.0859375 5.59375 0.203125 5.1875 0.203125 C 4.6875 0.203125 4.328125 0.0507812 4.109375 -0.25 C 3.972656 -0.425781 3.90625 -0.664062 3.90625 -0.96875 C 3.90625 -1.226562 3.953125 -1.515625 4.046875 -1.828125 C 3.710938 -1.109375 3.34375 -0.585938 2.9375 -0.265625 C 2.539062 0.046875 2.097656 0.203125 1.609375 0.203125 C 1.078125 0.203125 0.671875 0.046875 0.390625 -0.265625 C 0.117188 -0.578125 -0.015625 -1.015625 -0.015625 -1.578125 C -0.015625 -2.441406 0.210938 -3.359375 0.671875 -4.328125 C 1.140625 -5.296875 1.722656 -6.101562 2.421875 -6.75 C 3.128906 -7.394531 3.828125 -7.71875 4.515625 -7.71875 C 4.773438 -7.71875 4.984375 -7.640625 5.140625 -7.484375 C 5.296875 -7.335938 5.390625 -7.109375 5.421875 -6.796875 L 5.625 -7.5 C 6.40625 -7.507812 7.109375 -7.582031 7.734375 -7.71875 L 5.828125 -1.234375 C 5.785156 -1.066406 5.765625 -0.929688 5.765625 -0.828125 C 5.765625 -0.617188 5.851562 -0.515625 6.03125 -0.515625 C 6.375 -0.515625 6.675781 -0.894531 6.9375 -1.65625 Z M 5.265625 -6.21875 C 5.273438 -6.269531 5.28125 -6.34375 5.28125 -6.4375 C 5.28125 -6.6875 5.238281 -6.875 5.15625 -7 C 5.070312 -7.125 4.945312 -7.1875 4.78125 -7.1875 C 4.457031 -7.1875 4.082031 -6.890625 3.65625 -6.296875 C 3.238281 -5.703125 2.878906 -4.957031 2.578125 -4.0625 C 2.285156 -3.175781 2.140625 -2.316406 2.140625 -1.484375 C 2.140625 -1.160156 2.171875 -0.925781 2.234375 -0.78125 C 2.296875 -0.644531 2.398438 -0.578125 2.546875 -0.578125 C 2.753906 -0.578125 2.988281 -0.722656 3.25 -1.015625 C 3.507812 -1.316406 3.765625 -1.742188 4.015625 -2.296875 C 4.273438 -2.859375 4.503906 -3.523438 4.703125 -4.296875 L 4.625 -3.9375 Z M 5.265625 -6.21875 "/></g></g></g><g fill="#000000" fill-opacity="1"><g transform="translate(225.033061, 256.525135)"><g><path d="M 2.390625 -1.234375 C 2.359375 -1.140625 2.34375 -1.046875 2.34375 -0.953125 C 2.34375 -0.804688 2.378906 -0.695312 2.453125 -0.625 C 2.535156 -0.550781 2.644531 -0.515625 2.78125 -0.515625 C 2.988281 -0.515625 3.191406 -0.617188 3.390625 -0.828125 C 3.585938 -1.035156 3.765625 -1.347656 3.921875 -1.765625 L 4.140625 -2.359375 L 4.421875 -2.359375 L 4.125 -1.515625 C 3.75 -0.367188 3.023438 0.203125 1.953125 0.203125 C 1.453125 0.203125 1.078125 0.078125 0.828125 -0.171875 C 0.585938 -0.429688 0.46875 -0.785156 0.46875 -1.234375 C 0.46875 -1.515625 0.507812 -1.804688 0.59375 -2.109375 L 2.0625 -7.234375 L 0.75 -7.234375 L 0.828125 -7.515625 L 2.15625 -7.515625 L 2.78125 -9.6875 C 3.601562 -9.695312 4.304688 -9.765625 4.890625 -9.890625 L 4.203125 -7.515625 L 5.84375 -7.515625 L 5.796875 -7.234375 L 4.109375 -7.234375 Z M 2.390625 -1.234375 "/></g></g></g><g fill="#000000" fill-opacity="1"><g transform="translate(230.889804, 256.525135)"><g><path d="M 0.171875 -2.203125 C 0.171875 -2.992188 0.351562 -3.820312 0.71875 -4.6875 C 1.082031 -5.550781 1.617188 -6.269531 2.328125 -6.84375 C 3.046875 -7.425781 3.898438 -7.71875 4.890625 -7.71875 C 5.640625 -7.71875 6.21875 -7.507812 6.625 -7.09375 C 7.039062 -6.6875 7.25 -6.097656 7.25 -5.328125 C 7.25 -4.523438 7.066406 -3.691406 6.703125 -2.828125 C 6.335938 -1.972656 5.796875 -1.253906 5.078125 -0.671875 C 4.367188 -0.0859375 3.519531 0.203125 2.53125 0.203125 C 1.769531 0.203125 1.1875 0 0.78125 -0.40625 C 0.375 -0.820312 0.171875 -1.421875 0.171875 -2.203125 Z M 4.8125 -7.4375 C 4.457031 -7.4375 4.066406 -7.09375 3.640625 -6.40625 C 3.210938 -5.71875 2.851562 -4.875 2.5625 -3.875 C 2.269531 -2.875 2.125 -1.941406 2.125 -1.078125 C 2.125 -0.722656 2.160156 -0.46875 2.234375 -0.3125 C 2.316406 -0.164062 2.445312 -0.09375 2.625 -0.09375 C 2.976562 -0.09375 3.363281 -0.425781 3.78125 -1.09375 C 4.207031 -1.757812 4.566406 -2.585938 4.859375 -3.578125 C 5.148438 -4.578125 5.296875 -5.523438 5.296875 -6.421875 C 5.296875 -6.796875 5.253906 -7.054688 5.171875 -7.203125 C 5.097656 -7.359375 4.976562 -7.4375 4.8125 -7.4375 Z M 4.8125 -7.4375 "/></g></g></g><g fill="#000000" fill-opacity="1"><g transform="translate(239.30406, 256.525135)"><g><path d="M 6.0625 -7.71875 C 6.4375 -7.71875 6.726562 -7.609375 6.9375 -7.390625 C 7.144531 -7.171875 7.25 -6.890625 7.25 -6.546875 C 7.25 -6.128906 7.113281 -5.769531 6.84375 -5.46875 C 6.570312 -5.175781 6.242188 -5.03125 5.859375 -5.03125 C 5.578125 -5.03125 5.359375 -5.101562 5.203125 -5.25 C 5.046875 -5.40625 4.96875 -5.625 4.96875 -5.90625 C 4.96875 -6.25 5.082031 -6.554688 5.3125 -6.828125 C 5.550781 -7.109375 5.84375 -7.285156 6.1875 -7.359375 C 6.164062 -7.359375 6.132812 -7.363281 6.09375 -7.375 C 6.050781 -7.394531 6.019531 -7.40625 6 -7.40625 C 5.5 -7.40625 4.988281 -7.046875 4.46875 -6.328125 C 3.957031 -5.609375 3.4375 -4.328125 2.90625 -2.484375 L 2.265625 0 L 0.21875 0 L 2 -6.28125 C 2.039062 -6.4375 2.0625 -6.585938 2.0625 -6.734375 C 2.0625 -6.921875 1.984375 -7.015625 1.828125 -7.015625 C 1.648438 -7.015625 1.488281 -6.925781 1.34375 -6.75 C 1.195312 -6.570312 1.046875 -6.273438 0.890625 -5.859375 L 0.609375 -5.125 L 0.328125 -5.125 L 0.734375 -6.21875 C 1.085938 -7.21875 1.753906 -7.71875 2.734375 -7.71875 C 3.484375 -7.71875 3.859375 -7.328125 3.859375 -6.546875 C 3.859375 -6.265625 3.816406 -5.976562 3.734375 -5.6875 L 3.625 -5.21875 C 3.976562 -6.144531 4.34375 -6.789062 4.71875 -7.15625 C 5.09375 -7.53125 5.539062 -7.71875 6.0625 -7.71875 Z M 6.0625 -7.71875 "/></g></g></g></svg>